<svg width="190" height="190" viewBox="0 0 190 190" fill="none" xmlns="http://www.w3.org/2000/svg">
<path d="M0 0H190V190H0V0Z" fill="url(#paint0_linear_2_14)"/>
<path d="M30.92 116.8C27.4533 116.8 24.28 115.84 21.4 113.92C18.5733 112 16.3067 109.387 14.6 106.08C12.8933 102.773 12.04 99.04 12.04 94.88C12.04 90.6667 12.8933 86.9333 14.6 83.68C16.36 80.3733 18.7067 77.7867 21.64 75.92C24.6267 74.0533 27.96 73.12 31.64 73.12C33.8267 73.12 35.8267 73.44 37.64 74.08C39.4533 74.72 41.0267 75.6267 42.36 76.8C43.7467 77.92 44.8667 79.2267 45.72 80.72C46.6267 82.2133 47.1867 83.8133 47.4 85.52L45.56 84.88V74H53.88V116H45.56V106L47.48 105.44C47.16 106.88 46.4933 108.293 45.48 109.68C44.52 111.013 43.2667 112.213 41.72 113.28C40.2267 114.347 38.5467 115.2 36.68 115.84C34.8667 116.48 32.9467 116.8 30.92 116.8ZM33.08 109.2C35.5867 109.2 37.8 108.587 39.72 107.36C41.64 106.133 43.1333 104.453 44.2 102.32C45.32 100.133 45.88 97.6533 45.88 94.88C45.88 92.16 45.32 89.7333 44.2 87.6C43.1333 85.4667 41.64 83.7867 39.72 82.56C37.8 81.3333 35.5867 80.72 33.08 80.72C30.6267 80.72 28.44 81.3333 26.52 82.56C24.6533 83.7867 23.16 85.4667 22.04 87.6C20.9733 89.7333 20.44 92.16 20.44 94.88C20.44 97.6533 20.9733 100.133 22.04 102.32C23.16 104.453 24.6533 106.133 26.52 107.36C28.44 108.587 30.6267 109.2 33.08 109.2ZM65.225 116V74H73.545V82.96L72.025 83.92C72.4517 82.5333 73.1183 81.2 74.025 79.92C74.985 78.64 76.1317 77.52 77.465 76.56C78.8517 75.5467 80.3183 74.7467 81.865 74.16C83.465 73.5733 85.0917 73.28 86.745 73.28C89.145 73.28 91.2517 73.68 93.065 74.48C94.8783 75.28 96.3717 76.48 97.545 78.08C98.7183 79.68 99.5717 81.68 100.105 84.08L98.825 83.76L99.385 82.4C99.9717 81.1733 100.772 80.0267 101.785 78.96C102.852 77.84 104.052 76.8533 105.385 76C106.718 75.1467 108.132 74.48 109.625 74C111.118 73.52 112.585 73.28 114.025 73.28C117.172 73.28 119.758 73.92 121.785 75.2C123.865 76.48 125.412 78.4267 126.425 81.04C127.492 83.6533 128.025 86.9067 128.025 90.8V116H119.705V91.28C119.705 88.88 119.385 86.9333 118.745 85.44C118.158 83.8933 117.252 82.7467 116.025 82C114.798 81.2533 113.225 80.88 111.305 80.88C109.812 80.88 108.398 81.1467 107.065 81.68C105.785 82.16 104.665 82.8533 103.705 83.76C102.745 84.6667 101.998 85.7333 101.465 86.96C100.932 88.1333 100.665 89.44 100.665 90.88V116H92.345V91.12C92.345 88.9333 92.025 87.0933 91.385 85.6C90.745 84.0533 89.8117 82.88 88.585 82.08C87.3583 81.28 85.865 80.88 84.105 80.88C82.6117 80.88 81.225 81.1467 79.945 81.68C78.665 82.16 77.545 82.8533 76.585 83.76C75.625 84.6133 74.8783 85.6533 74.345 86.88C73.8117 88.0533 73.545 89.3333 73.545 90.72V116H65.225ZM145.706 134.4L154.186 114.8L154.266 121.36L133.306 74H142.906L156.026 104.88C156.293 105.413 156.613 106.24 156.986 107.36C157.36 108.427 157.68 109.493 157.946 110.56L155.866 111.04C156.293 109.92 156.693 108.8 157.066 107.68C157.493 106.56 157.893 105.44 158.266 104.32L169.226 74H178.986L161.706 116L154.586 134.4H145.706Z" fill="white"/>
<defs>
<linearGradient id="paint0_linear_2_14" x1="2.1621e-06" y1="97" x2="190" y2="97" gradientUnits="userSpaceOnUse">
<stop stop-color="#1E66F5"/>
<stop offset="1" stop-color="#73A1FD"/>
</linearGradient>
</defs>
</svg>
